<svg xmlns="http://www.w3.org/2000/svg" data-name="Layer 1" viewBox="0 0 100 125" x="0px" y="0px"><title>Artboard 12icono</title><path fill="#822432" d="M68.88,20.23H31.12A10.9,10.9,0,0,0,20.23,31.12V68.88A10.9,10.9,0,0,0,31.12,79.77H68.88A10.9,10.9,0,0,0,79.77,68.88V31.12A10.9,10.9,0,0,0,68.88,20.23Zm6.89,48.65a6.9,6.9,0,0,1-6.89,6.89H31.12a6.9,6.9,0,0,1-6.89-6.89V31.12a6.9,6.9,0,0,1,6.89-6.89H68.88a6.9,6.9,0,0,1,6.89,6.89V68.88Z"/><path fill="#822432" d="M42.79,33a2,2,0,0,0-2,2V65.81a2,2,0,0,0,4,0V60.55c9.07-.64,14.42-5.67,14.42-13.75C59.21,37.31,50.7,33,42.79,33Zm2,23.55V37.11c4.56.53,10.42,3,10.42,9.69C55.21,54,49.93,56.14,44.79,56.54Z"/></svg>